<mxfile host="app.diagrams.net" modified="2021-05-01T15:16:23.536Z" agent="5.0 (Windows NT 10.0; Win64; x64) AppleWebKit/537.36 (KHTML, like Gecko) Chrome/90.0.4430.93 Safari/537.36" etag="xtvpqSABmxg5uvp3qLXm" version="14.6.9" type="github">
  <diagram id="C5RBs43oDa-KdzZeNtuy" name="Page-1">
    <mxGraphModel dx="1102" dy="624" grid="0" gridSize="10" guides="1" tooltips="1" connect="1" arrows="1" fold="1" page="1" pageScale="1" pageWidth="827" pageHeight="1169" math="0" shadow="0">
      <root>
        <mxCell id="WIyWlLk6GJQsqaUBKTNV-0" />
        <mxCell id="WIyWlLk6GJQsqaUBKTNV-1" parent="WIyWlLk6GJQsqaUBKTNV-0" />
        <mxCell id="811VZy5sYRIplMdOXIZN-0" value="Bangun 2D" style="swimlane;fontStyle=1;align=center;verticalAlign=top;childLayout=stackLayout;horizontal=1;startSize=26;horizontalStack=0;resizeParent=1;resizeParentMax=0;resizeLast=0;collapsible=1;marginBottom=0;" vertex="1" parent="WIyWlLk6GJQsqaUBKTNV-1">
          <mxGeometry x="143" y="112" width="160" height="73" as="geometry" />
        </mxCell>
        <mxCell id="811VZy5sYRIplMdOXIZN-2" value="" style="line;strokeWidth=1;fillColor=none;align=left;verticalAlign=middle;spacingTop=-1;spacingLeft=3;spacingRight=3;rotatable=0;labelPosition=right;points=[];portConstraint=eastwest;" vertex="1" parent="811VZy5sYRIplMdOXIZN-0">
          <mxGeometry y="26" width="160" height="8" as="geometry" />
        </mxCell>
        <mxCell id="811VZy5sYRIplMdOXIZN-3" value="+ hitungLuas();&#xa;+ hitungKeliling();" style="text;strokeColor=none;fillColor=none;align=left;verticalAlign=top;spacingLeft=4;spacingRight=4;overflow=hidden;rotatable=0;points=[[0,0.5],[1,0.5]];portConstraint=eastwest;" vertex="1" parent="811VZy5sYRIplMdOXIZN-0">
          <mxGeometry y="34" width="160" height="39" as="geometry" />
        </mxCell>
        <mxCell id="811VZy5sYRIplMdOXIZN-5" value="Lingkaran" style="swimlane;fontStyle=1;align=center;verticalAlign=top;childLayout=stackLayout;horizontal=1;startSize=26;horizontalStack=0;resizeParent=1;resizeParentMax=0;resizeLast=0;collapsible=1;marginBottom=0;" vertex="1" parent="WIyWlLk6GJQsqaUBKTNV-1">
          <mxGeometry x="143" y="256" width="160" height="129" as="geometry" />
        </mxCell>
        <mxCell id="811VZy5sYRIplMdOXIZN-6" value="+ jejari" style="text;strokeColor=none;fillColor=none;align=left;verticalAlign=top;spacingLeft=4;spacingRight=4;overflow=hidden;rotatable=0;points=[[0,0.5],[1,0.5]];portConstraint=eastwest;" vertex="1" parent="811VZy5sYRIplMdOXIZN-5">
          <mxGeometry y="26" width="160" height="26" as="geometry" />
        </mxCell>
        <mxCell id="811VZy5sYRIplMdOXIZN-7" value="" style="line;strokeWidth=1;fillColor=none;align=left;verticalAlign=middle;spacingTop=-1;spacingLeft=3;spacingRight=3;rotatable=0;labelPosition=right;points=[];portConstraint=eastwest;" vertex="1" parent="811VZy5sYRIplMdOXIZN-5">
          <mxGeometry y="52" width="160" height="8" as="geometry" />
        </mxCell>
        <mxCell id="811VZy5sYRIplMdOXIZN-8" value="+ setJejari();&#xa;+ getJejari();&#xa;+ hitungLuas();&#xa;+ hitungKeliling();" style="text;strokeColor=none;fillColor=none;align=left;verticalAlign=top;spacingLeft=4;spacingRight=4;overflow=hidden;rotatable=0;points=[[0,0.5],[1,0.5]];portConstraint=eastwest;" vertex="1" parent="811VZy5sYRIplMdOXIZN-5">
          <mxGeometry y="60" width="160" height="69" as="geometry" />
        </mxCell>
        <mxCell id="811VZy5sYRIplMdOXIZN-10" value="" style="endArrow=block;dashed=1;html=1;dashPattern=1 3;strokeWidth=2;entryX=0.5;entryY=1.026;entryDx=0;entryDy=0;entryPerimeter=0;exitX=0.5;exitY=0;exitDx=0;exitDy=0;snapToPoint=0;fixDash=0;startArrow=none;startFill=0;strokeColor=#030303;endFill=0;rounded=0;" edge="1" parent="WIyWlLk6GJQsqaUBKTNV-1" source="811VZy5sYRIplMdOXIZN-5" target="811VZy5sYRIplMdOXIZN-3">
          <mxGeometry width="50" height="50" relative="1" as="geometry">
            <mxPoint x="221" y="248" as="sourcePoint" />
            <mxPoint x="256" y="258" as="targetPoint" />
          </mxGeometry>
        </mxCell>
      </root>
    </mxGraphModel>
  </diagram>
</mxfile>
